HIERARCHY
ROOT Hips
{
	OFFSET 0.000000 89.005402 0.000000
	CHANNELS 6 Xposition Yposition Zposition Xrotation Yrotation Zrotation
	JOINT Spine
	{
		OFFSET 0.116900 10.681000 0.373400
		CHANNELS 3 Xrotation Yrotation Zrotation
		JOINT Spine1
		{
			OFFSET 0.000000 13.840401 0.053500
			CHANNELS 3 Xrotation Yrotation Zrotation
			JOINT Spine2
			{
				OFFSET 0.000000 14.712700 -0.366200
				CHANNELS 3 Xrotation Yrotation Zrotation
				JOINT Neck
				{
					OFFSET 0.000000 35.415497 -3.314200
					CHANNELS 3 Xrotation Yrotation Zrotation
					JOINT Head
					{
						OFFSET 0.000000 16.899200 1.218300
						CHANNELS 3 Xrotation Yrotation Zrotation
						JOINT HeadTop_End
						{
							OFFSET 0.000000 22.206207 2.192500
							CHANNELS 3 Xrotation Yrotation Zrotation
							End Site
							{
								OFFSET 0.000000 22.314178 0.000000
							}
						}
					}
				}
				JOINT LeftShoulder
				{
					OFFSET 12.896400 26.716293 -4.548400
					CHANNELS 3 Xrotation Yrotation Zrotation
					JOINT LeftArm
					{
						OFFSET 19.027000 -4.857010 -1.718400
						CHANNELS 3 Xrotation Yrotation Zrotation
						JOINT LeftForeArm
						{
							OFFSET 24.179897 0.000000 0.000000
							CHANNELS 3 Xrotation Yrotation Zrotation
							JOINT LeftHand
							{
								OFFSET 27.156403 0.000000 0.000000
								CHANNELS 3 Xrotation Yrotation Zrotation
								JOINT LeftHandIndex1
								{
									OFFSET 16.441200 0.000000 0.000000
									CHANNELS 3 Xrotation Yrotation Zrotation
									JOINT LeftHandIndex2
									{
										OFFSET 4.821899 0.000000 0.000000
										CHANNELS 3 Xrotation Yrotation Zrotation
										JOINT LeftHandIndex3
										{
											OFFSET 6.386497 0.000000 0.000000
											CHANNELS 3 Xrotation Yrotation Zrotation
											JOINT LeftHandIndex4
											{
												OFFSET 5.188988 0.000000 0.000000
												CHANNELS 3 Xrotation Yrotation Zrotation
												End Site
												{
													OFFSET -0.178703 5.185913 0.000177
												}
											}
										}
									}
								}
								JOINT LeftHandThumb1
								{
									OFFSET 6.534897 -5.032593 5.900300
									CHANNELS 3 Xrotation Yrotation Zrotation
									JOINT LeftHandThumb2
									{
										OFFSET 3.818176 -2.204422 2.204423
										CHANNELS 3 Xrotation Yrotation Zrotation
										JOINT LeftHandThumb3
										{
											OFFSET 3.252098 -1.877594 1.877601
											CHANNELS 3 Xrotation Yrotation Zrotation
											JOINT LeftHandThumb4
											{
												OFFSET 5.251778 -3.032120 3.032117
												CHANNELS 3 Xrotation Yrotation Zrotation
												End Site
												{
													OFFSET 0.000023 6.780014 0.000000
												}
											}
										}
									}
								}
							}
						}
					}
				}
				JOINT RightShoulder
				{
					OFFSET -12.896300 26.716293 -4.548400
					CHANNELS 3 Xrotation Yrotation Zrotation
					JOINT RightArm
					{
						OFFSET -19.027000 -4.857010 -1.718400
						CHANNELS 3 Xrotation Yrotation Zrotation
						JOINT RightForeArm
						{
							OFFSET -24.179897 0.000000 0.000000
							CHANNELS 3 Xrotation Yrotation Zrotation
							JOINT RightHand
							{
								OFFSET -27.156403 0.000000 0.000000
								CHANNELS 3 Xrotation Yrotation Zrotation
								JOINT RightHandThumb1
								{
									OFFSET -6.591202 -4.852203 5.988100
									CHANNELS 3 Xrotation Yrotation Zrotation
									JOINT RightHandThumb2
									{
										OFFSET -3.818176 -2.204422 2.204423
										CHANNELS 3 Xrotation Yrotation Zrotation
										JOINT RightHandThumb3
										{
											OFFSET -3.252098 -1.877594 1.877601
											CHANNELS 3 Xrotation Yrotation Zrotation
											JOINT RightHandThumb4
											{
												OFFSET -5.251778 -3.032120 3.032117
												CHANNELS 3 Xrotation Yrotation Zrotation
												End Site
												{
													OFFSET -0.000023 6.780014 0.000000
												}
											}
										}
									}
								}
								JOINT RightHandIndex1
								{
									OFFSET -16.029404 0.000000 0.000000
									CHANNELS 3 Xrotation Yrotation Zrotation
									JOINT RightHandIndex2
									{
										OFFSET -5.213303 0.000000 0.000000
										CHANNELS 3 Xrotation Yrotation Zrotation
										JOINT RightHandIndex3
										{
											OFFSET -6.386528 0.000000 0.000000
											CHANNELS 3 Xrotation Yrotation Zrotation
											JOINT RightHandIndex4
											{
												OFFSET -5.189026 0.000000 0.000000
												CHANNELS 3 Xrotation Yrotation Zrotation
												End Site
												{
													OFFSET 0.236702 5.183624 0.001972
												}
											}
										}
									}
								}
							}
						}
					}
				}
			}
		}
	}
	JOINT LeftUpLeg
	{
		OFFSET 14.073000 -7.904099 -1.463000
		CHANNELS 3 Xrotation Yrotation Zrotation
		JOINT LeftLeg
		{
			OFFSET -0.109806 -34.073280 4.093200
			CHANNELS 3 Xrotation Yrotation Zrotation
			JOINT LeftFoot
			{
				OFFSET 0.109806 -29.899420 -6.319000
				CHANNELS 3 Xrotation Yrotation Zrotation
				JOINT LeftToeBase
				{
					OFFSET 1.551100 -14.988700 20.535801
					CHANNELS 3 Xrotation Yrotation Zrotation
					JOINT LeftToe_End
					{
						OFFSET 0.221200 0.570800 13.248301
						CHANNELS 3 Xrotation Yrotation Zrotation
						End Site
						{
							OFFSET 0.000000 13.262435 0.000000
						}
					}
				}
			}
		}
	}
	JOINT RightUpLeg
	{
		OFFSET -13.839300 -7.904099 -1.463000
		CHANNELS 3 Xrotation Yrotation Zrotation
		JOINT RightLeg
		{
			OFFSET 0.109694 -34.073219 4.093300
			CHANNELS 3 Xrotation Yrotation Zrotation
			JOINT RightFoot
			{
				OFFSET -0.109694 -29.899384 -6.319200
				CHANNELS 3 Xrotation Yrotation Zrotation
				JOINT RightToeBase
				{
					OFFSET -1.551100 -14.988700 20.535801
					CHANNELS 3 Xrotation Yrotation Zrotation
					JOINT RightToe_End
					{
						OFFSET -0.221200 0.570900 13.248299
						CHANNELS 3 Xrotation Yrotation Zrotation
						End Site
						{
							OFFSET 0.000000 13.262440 0.000000
						}
					}
				}
			}
		}
	}
}
MOTION
Frames: 4
Frame Time: 0.033333
0.239954 85.230087 1.457288 1.940115 1.893650 -0.709313 6.185850 -1.177653 0.587126 2.498171 -2.419468 1.232352 2.471489 -2.375263 1.342052 -0.476781 2.129173 -0.237485 -3.193112 4.531021 -1.876713 0.000000 -0.000000 -0.000000 0.352374 -9.169218 -14.380746 9.011945 -24.442286 -57.554603 0.000007 -11.061366 0.000004 3.271986 3.566772 -10.594323 -2.233900 -4.155358 -17.702602 0.202672 1.529138 -15.099441 0.202680 1.529135 -15.099458 0.000002 0.000001 -0.000003 5.264578 3.579091 10.848978 6.475007 8.367009 6.368027 2.011414 -7.323822 21.364147 0.000001 -0.000001 -0.000001 0.552465 4.135211 15.717230 2.585513 28.440240 49.448705 -0.000006 23.198763 0.000016 -1.370132 0.937420 5.904129 12.604589 -3.092102 -3.819368 4.958730 -19.016357 -8.084342 -16.138070 -1.566946 -12.127649 -0.000003 -0.000002 -0.000003 -2.604761 4.001032 20.792728 0.394937 -1.878584 23.742685 0.077863 -0.848916 10.480019 -0.000001 0.000000 0.000002 -28.489684 9.362106 4.454728 54.995860 -3.718178 -0.328528 0.423673 -0.577080 1.463721 -29.131607 -0.725749 1.896960 -0.000000 -0.000001 0.000000 -14.327025 -7.621540 2.590129 24.657108 2.398141 -4.531306 -12.997262 -0.029252 0.402794 -4.971782 0.000000 0.000000 0.000000 0.000000 0.000000 
0.281440 86.404533 6.334019 2.536910 1.318055 -0.362735 5.778970 -0.219770 0.176214 2.234220 -1.840796 0.676535 2.217203 -1.797398 0.769948 -0.432898 1.886102 -0.364866 -2.834825 3.316963 -1.875546 0.000001 0.000000 -0.000000 0.400752 -8.194772 -14.189462 11.473797 -20.864430 -59.378092 0.000001 -11.041844 0.000001 2.941745 2.341888 -13.706592 -2.284158 -4.876525 -16.721329 0.203015 1.530388 -15.112108 0.203015 1.530394 -15.112120 -0.000000 -0.000002 0.000002 5.264581 3.579092 10.848979 5.762007 7.923267 6.757424 2.014411 -6.999233 21.321624 0.000002 0.000002 -0.000002 0.538061 4.449559 15.461690 2.369815 30.529720 47.477048 -0.000006 25.998984 0.000019 -1.104285 -1.868276 8.080238 12.604586 -3.092103 -3.819367 4.823352 -18.766500 -8.140570 -16.139257 -1.560848 -12.127874 0.000003 0.000001 0.000002 -2.665561 4.004921 21.171174 0.395108 -1.878971 23.748028 0.077933 -0.849346 10.485369 0.000001 0.000001 0.000001 -30.360061 9.064548 3.978550 40.781372 -1.923102 -1.917057 1.112444 -0.163628 -1.784001 -11.506937 -0.447318 4.987102 -0.000000 -0.000002 0.000000 -7.230591 -8.291717 3.329043 18.060885 3.957504 -5.939611 -14.623616 -0.238454 1.181274 -4.671637 -0.000000 -0.000000 0.000000 0.000000 0.000000 
0.354350 86.896095 10.961754 3.182694 0.709666 -0.169073 5.333934 0.724266 0.298864 2.013604 -1.243921 -0.033867 1.997114 -1.211860 0.044632 -0.524805 1.552777 -0.248575 -2.830583 2.299516 -1.873583 -0.000001 0.000000 0.000000 0.440411 -7.293194 -14.075036 13.705671 -17.314058 -61.273231 0.000003 -10.936220 0.000013 2.713691 0.651326 -15.243988 -2.239370 -4.807166 -16.567257 0.203372 1.531689 -15.125370 0.203365 1.531705 -15.125379 0.000001 -0.000002 0.000003 5.264580 3.579092 10.848980 5.812065 7.755806 6.707110 2.014071 -7.001308 21.310732 -0.000002 -0.000001 -0.000000 0.529705 4.787505 14.711474 2.276078 32.199219 45.124294 0.000001 30.315129 -0.000015 -0.064049 -4.741373 10.367570 12.604590 -3.092102 -3.819367 5.224042 -17.723786 -7.877017 -16.153206 -1.489530 -12.130514 0.000001 -0.000001 0.000003 -2.879406 3.994424 22.533390 0.392502 -1.873035 23.668281 0.076765 -0.842974 10.405703 -0.000001 0.000001 0.000002 -30.188159 8.419975 3.317914 22.266910 0.770455 -2.500424 4.576713 0.142066 -4.799582 -5.376334 0.000000 0.000001 -0.000001 0.000000 -0.000000 -1.183451 -9.726336 2.902970 12.229636 6.338573 -4.658340 -15.135281 0.017079 0.157398 -4.486928 -0.000001 -0.000000 -0.000000 -0.000000 0.000000 
0.569266 86.220306 15.461082 3.630272 -0.402070 -1.041783 4.795620 2.222295 1.988978 1.950787 -0.652175 -1.037333 1.912895 -0.645048 -0.974626 -0.628595 1.108976 0.338400 -3.206090 1.506934 -2.195020 -0.000000 -0.000000 0.000000 0.463813 -6.804707 -13.921266 15.604906 -13.907892 -63.346002 0.000002 -10.450626 0.000001 1.835905 -0.898092 -15.552445 -2.188830 -4.727862 -16.391846 0.203360 1.531681 -15.125141 0.203362 1.531674 -15.125155 -0.000001 -0.000001 0.000003 5.264577 3.579091 10.848980 6.090498 7.324391 6.566351 2.012324 -7.063342 21.284087 -0.000000 0.000000 -0.000002 0.523035 5.234981 13.873700 1.906238 33.561518 42.363640 0.000007 33.208947 -0.000012 0.720437 -4.683035 11.991778 12.604584 -3.092102 -3.819367 5.548321 -15.996928 -7.639442 -16.171043 -1.398089 -12.133768 0.000001 0.000001 -0.000000 -3.096419 4.007132 23.817220 0.393143 -1.874504 23.687969 0.077044 -0.844537 10.425370 -0.000000 -0.000002 -0.000003 -34.524120 6.744663 3.873600 13.709218 3.037295 -1.204462 3.203217 0.166356 -6.263050 -5.861100 0.000005 0.000005 -0.000001 -0.000001 -0.000000 2.749428 -11.369698 2.751193 10.920448 6.028984 -2.992682 -17.348066 3.156658 -0.273138 -4.544565 -0.000001 0.000000 0.000000 0.000000 0.000000 
